<?xml version="1.0" standalone="no"?>
<!DOCTYPE svg PUBLIC "-//W3C//DTD SVG 20010904//EN"
 "http://www.w3.org/TR/2001/REC-SVG-20010904/DTD/svg10.dtd">
<svg version="1.0" xmlns="http://www.w3.org/2000/svg"
 width="217.000000pt" height="70.000000pt" viewBox="0 0 217.000000 70.000000"
 preserveAspectRatio="xMidYMid meet">
<metadata>
Created by potrace 1.16, written by Peter Selinger 2001-2019
</metadata>
<g transform="translate(0.000000,70.000000) scale(0.100000,-0.100000)"
fill="#000000" stroke="none">
<path d="M0 350 l0 -350 1085 0 1085 0 0 350 0 350 -1085 0 -1085 0 0 -350z
m685 200 c41 -16 55 -64 55 -192 0 -174 -21 -220 -100 -222 -31 0 -46 5 -67
27 -28 27 -28 30 -31 168 -4 155 4 191 47 214 31 17 60 19 96 5z m-301 -125
l41 -120 3 123 3 122 30 0 29 0 -2 -202 -3 -203 -30 0 c-29 0 -31 3 -70 115
l-40 115 -3 -118 -3 -118 -27 3 -27 3 -3 203 -2 203 32 -3 c31 -3 32 -5 72
-123z m456 3 c15 -135 21 -132 40 20 12 102 12 102 40 102 27 0 28 -1 40 -87
25 -179 25 -179 38 -65 7 56 12 114 12 127 0 22 5 25 33 25 l34 0 -29 -182
c-37 -239 -34 -228 -63 -228 -27 0 -25 -4 -49 155 -15 101 -19 98 -36 -30 -16
-120 -17 -125 -45 -125 -27 0 -25 -8 -60 215 -31 202 -32 195 4 195 l28 0 13
-122z m330 42 l0 -80 35 0 35 0 0 80 0 80 30 0 30 0 0 -205 0 -205 -30 0 -29
0 -3 93 -3 92 -30 0 -30 0 -3 -92 -3 -93 -29 0 -30 0 0 205 0 205 30 0 30 0 0
-80z m360 50 c0 -29 -1 -30 -50 -30 l-50 0 0 -50 0 -50 35 0 c32 0 35 -2 35
-30 0 -28 -3 -30 -35 -30 l-35 0 0 -62 0 -63 47 0 c47 0 48 -1 51 -33 l3 -33
-83 3 -83 3 -3 203 -2 202 85 0 85 0 0 -30z m207 6 c25 -22 28 -30 28 -89 0
-49 -4 -70 -18 -85 -18 -19 -18 -23 2 -107 12 -48 21 -91 21 -96 0 -5 -13 -9
-30 -9 -31 0 -38 14 -56 111 -19 99 -44 84 -44 -27 l0 -84 -30 0 -30 0 0 205
0 205 64 0 c54 0 70 -4 93 -24z m243 -6 c0 -29 -1 -30 -50 -30 l-50 0 0 -49 0
-50 38 -3 c32 -3 37 -7 40 -30 3 -24 0 -27 -35 -30 l-38 -3 0 -60 0 -60 48 3
47 3 0 -36 0 -35 -80 0 -80 0 0 205 0 205 80 0 80 0 0 -30z"/>
<path d="M617 494 c-4 -4 -7 -71 -7 -150 0 -122 2 -143 16 -148 38 -15 45 10
42 158 -3 133 -4 141 -23 144 -12 2 -24 0 -28 -4z"/>
</g>
</svg>
